<mxfile host="app.diagrams.net" modified="2024-01-16T15:48:02.459Z" agent="Mozilla/5.0 (Windows NT 10.0; Win64; x64; rv:121.0) Gecko/20100101 Firefox/121.0" etag="cq9Fnxpo1bwbNSSpKvG4" version="22.1.19" type="github">
  <diagram name="Seite-1" id="IBqcnsN6eLZTh5Qhn7dX">
    <mxGraphModel dx="2440" dy="1311" grid="1" gridSize="10" guides="1" tooltips="1" connect="1" arrows="1" fold="1" page="1" pageScale="1" pageWidth="1169" pageHeight="827" math="0" shadow="0">
      <root>
        <mxCell id="0" />
        <mxCell id="1" parent="0" />
        <mxCell id="1YuBAB6H5FNzcQYwjlHQ-1" value="" style="ellipse;whiteSpace=wrap;html=1;aspect=fixed;strokeWidth=2;" parent="1" vertex="1">
          <mxGeometry x="80" y="200" width="80" height="80" as="geometry" />
        </mxCell>
        <mxCell id="1YuBAB6H5FNzcQYwjlHQ-2" value="" style="ellipse;whiteSpace=wrap;html=1;aspect=fixed;strokeWidth=2;" parent="1" vertex="1">
          <mxGeometry x="1040" y="40" width="80" height="80" as="geometry" />
        </mxCell>
        <mxCell id="1YuBAB6H5FNzcQYwjlHQ-4" value="" style="ellipse;whiteSpace=wrap;html=1;aspect=fixed;strokeWidth=2;" parent="1" vertex="1">
          <mxGeometry x="320" y="200" width="80" height="80" as="geometry" />
        </mxCell>
        <mxCell id="1YuBAB6H5FNzcQYwjlHQ-5" value="" style="ellipse;whiteSpace=wrap;html=1;aspect=fixed;strokeWidth=2;" parent="1" vertex="1">
          <mxGeometry x="1280" y="200" width="80" height="80" as="geometry" />
        </mxCell>
        <mxCell id="1YuBAB6H5FNzcQYwjlHQ-6" value="" style="ellipse;whiteSpace=wrap;html=1;aspect=fixed;strokeWidth=2;" parent="1" vertex="1">
          <mxGeometry x="560" y="200" width="80" height="80" as="geometry" />
        </mxCell>
        <mxCell id="1YuBAB6H5FNzcQYwjlHQ-8" value="φ" style="rounded=0;whiteSpace=wrap;html=1;fontSize=40;strokeWidth=2;" parent="1" vertex="1">
          <mxGeometry x="200" y="200" width="80" height="80" as="geometry" />
        </mxCell>
        <mxCell id="1YuBAB6H5FNzcQYwjlHQ-9" value="H" style="rounded=0;whiteSpace=wrap;html=1;fontSize=44;strokeWidth=2;" parent="1" vertex="1">
          <mxGeometry x="440" y="200" width="80" height="80" as="geometry" />
        </mxCell>
        <mxCell id="1YuBAB6H5FNzcQYwjlHQ-10" value="A" style="rounded=0;whiteSpace=wrap;html=1;fontSize=44;strokeWidth=2;" parent="1" vertex="1">
          <mxGeometry x="680" y="40" width="80" height="80" as="geometry" />
        </mxCell>
        <mxCell id="1YuBAB6H5FNzcQYwjlHQ-11" value="L" style="rounded=0;whiteSpace=wrap;html=1;fontSize=44;strokeWidth=2;" parent="1" vertex="1">
          <mxGeometry x="920" y="200" width="80" height="80" as="geometry" />
        </mxCell>
        <mxCell id="1YuBAB6H5FNzcQYwjlHQ-12" value="" style="endArrow=classic;html=1;rounded=0;curved=1;exitX=1;exitY=0.5;exitDx=0;exitDy=0;strokeWidth=2;" parent="1" source="1YuBAB6H5FNzcQYwjlHQ-8" edge="1">
          <mxGeometry width="50" height="50" relative="1" as="geometry">
            <mxPoint x="340" y="290" as="sourcePoint" />
            <mxPoint x="320" y="240" as="targetPoint" />
          </mxGeometry>
        </mxCell>
        <mxCell id="1YuBAB6H5FNzcQYwjlHQ-13" value="" style="endArrow=classic;html=1;rounded=0;curved=1;entryX=0;entryY=0.5;entryDx=0;entryDy=0;exitX=1;exitY=0.5;exitDx=0;exitDy=0;strokeWidth=2;" parent="1" source="1YuBAB6H5FNzcQYwjlHQ-4" target="1YuBAB6H5FNzcQYwjlHQ-9" edge="1">
          <mxGeometry width="50" height="50" relative="1" as="geometry">
            <mxPoint x="340" y="290" as="sourcePoint" />
            <mxPoint x="390" y="240" as="targetPoint" />
          </mxGeometry>
        </mxCell>
        <mxCell id="1YuBAB6H5FNzcQYwjlHQ-15" value="" style="endArrow=classic;html=1;rounded=0;curved=1;exitX=1;exitY=0.5;exitDx=0;exitDy=0;entryX=0;entryY=0.5;entryDx=0;entryDy=0;strokeWidth=2;" parent="1" source="1YuBAB6H5FNzcQYwjlHQ-9" target="1YuBAB6H5FNzcQYwjlHQ-6" edge="1">
          <mxGeometry width="50" height="50" relative="1" as="geometry">
            <mxPoint x="590" y="270" as="sourcePoint" />
            <mxPoint x="640" y="220" as="targetPoint" />
          </mxGeometry>
        </mxCell>
        <mxCell id="1YuBAB6H5FNzcQYwjlHQ-17" value="" style="endArrow=classic;html=1;rounded=0;curved=1;exitX=1;exitY=0;exitDx=0;exitDy=0;entryX=0;entryY=0.5;entryDx=0;entryDy=0;strokeWidth=2;" parent="1" source="1YuBAB6H5FNzcQYwjlHQ-6" target="1YuBAB6H5FNzcQYwjlHQ-10" edge="1">
          <mxGeometry width="50" height="50" relative="1" as="geometry">
            <mxPoint x="590" y="240" as="sourcePoint" />
            <mxPoint x="640" y="240" as="targetPoint" />
          </mxGeometry>
        </mxCell>
        <mxCell id="1YuBAB6H5FNzcQYwjlHQ-19" value="" style="endArrow=classic;html=1;rounded=0;curved=1;exitX=1;exitY=0.5;exitDx=0;exitDy=0;entryX=0;entryY=0.5;entryDx=0;entryDy=0;strokeWidth=2;" parent="1" source="1YuBAB6H5FNzcQYwjlHQ-10" target="1YuBAB6H5FNzcQYwjlHQ-2" edge="1">
          <mxGeometry width="50" height="50" relative="1" as="geometry">
            <mxPoint x="610" y="290" as="sourcePoint" />
            <mxPoint x="660" y="240" as="targetPoint" />
          </mxGeometry>
        </mxCell>
        <mxCell id="1YuBAB6H5FNzcQYwjlHQ-22" value="" style="ellipse;whiteSpace=wrap;html=1;aspect=fixed;strokeWidth=2;" parent="1" vertex="1">
          <mxGeometry x="1040" y="359" width="80" height="80" as="geometry" />
        </mxCell>
        <mxCell id="1YuBAB6H5FNzcQYwjlHQ-23" value="E" style="rounded=0;whiteSpace=wrap;html=1;fontSize=44;strokeWidth=2;" parent="1" vertex="1">
          <mxGeometry x="680" y="200" width="80" height="80" as="geometry" />
        </mxCell>
        <mxCell id="1YuBAB6H5FNzcQYwjlHQ-26" value="" style="endArrow=classic;html=1;rounded=0;curved=1;exitX=1;exitY=0.5;exitDx=0;exitDy=0;strokeWidth=2;entryX=0.007;entryY=0.635;entryDx=0;entryDy=0;entryPerimeter=0;" parent="1" source="1YuBAB6H5FNzcQYwjlHQ-22" target="38OJZpCKWBIkEkBOtK0j-17" edge="1">
          <mxGeometry width="50" height="50" relative="1" as="geometry">
            <mxPoint x="990" y="280" as="sourcePoint" />
            <mxPoint x="1040" y="390" as="targetPoint" />
          </mxGeometry>
        </mxCell>
        <mxCell id="1YuBAB6H5FNzcQYwjlHQ-27" value="" style="endArrow=classic;html=1;rounded=0;curved=1;entryX=0;entryY=0.5;entryDx=0;entryDy=0;exitX=1;exitY=0.5;exitDx=0;exitDy=0;strokeWidth=2;" parent="1" source="1YuBAB6H5FNzcQYwjlHQ-1" target="1YuBAB6H5FNzcQYwjlHQ-8" edge="1">
          <mxGeometry width="50" height="50" relative="1" as="geometry">
            <mxPoint x="390" y="320" as="sourcePoint" />
            <mxPoint x="440" y="390" as="targetPoint" />
          </mxGeometry>
        </mxCell>
        <mxCell id="1YuBAB6H5FNzcQYwjlHQ-28" value="t*" style="rounded=0;whiteSpace=wrap;html=1;dashed=1;dashPattern=8 8;fontSize=30;strokeWidth=2;" parent="1" vertex="1">
          <mxGeometry x="1040" y="560" width="80" height="80" as="geometry" />
        </mxCell>
        <mxCell id="1YuBAB6H5FNzcQYwjlHQ-29" value="" style="endArrow=classic;html=1;rounded=0;curved=1;entryX=1;entryY=0.5;entryDx=0;entryDy=0;exitX=0;exitY=1;exitDx=0;exitDy=0;dashed=1;dashPattern=8 8;strokeWidth=2;" parent="1" source="9U9fe0AIUVm3C8UtWrKh-1" target="1YuBAB6H5FNzcQYwjlHQ-28" edge="1">
          <mxGeometry width="50" height="50" relative="1" as="geometry">
            <mxPoint x="980" y="350" as="sourcePoint" />
            <mxPoint x="890" y="430" as="targetPoint" />
            <Array as="points">
              <mxPoint x="1620" y="580" />
            </Array>
          </mxGeometry>
        </mxCell>
        <mxCell id="1YuBAB6H5FNzcQYwjlHQ-30" value="" style="endArrow=classic;html=1;rounded=0;curved=1;entryX=0.839;entryY=0.977;entryDx=0;entryDy=0;exitX=0;exitY=0.5;exitDx=0;exitDy=0;dashed=1;dashPattern=8 8;entryPerimeter=0;strokeWidth=2;" parent="1" source="1YuBAB6H5FNzcQYwjlHQ-28" target="1YuBAB6H5FNzcQYwjlHQ-1" edge="1">
          <mxGeometry width="50" height="50" relative="1" as="geometry">
            <mxPoint x="660" y="334" as="sourcePoint" />
            <mxPoint x="340" y="494" as="targetPoint" />
            <Array as="points">
              <mxPoint x="250" y="560" />
            </Array>
          </mxGeometry>
        </mxCell>
        <mxCell id="9U9fe0AIUVm3C8UtWrKh-1" value="" style="ellipse;whiteSpace=wrap;html=1;aspect=fixed;strokeWidth=2;" parent="1" vertex="1">
          <mxGeometry x="1770.48" y="201.68" width="80" height="80" as="geometry" />
        </mxCell>
        <mxCell id="9U9fe0AIUVm3C8UtWrKh-2" value="ψ" style="rounded=0;whiteSpace=wrap;html=1;fontSize=40;strokeWidth=2;" parent="1" vertex="1">
          <mxGeometry x="1640" y="201.68" width="80" height="80" as="geometry" />
        </mxCell>
        <mxCell id="9U9fe0AIUVm3C8UtWrKh-3" value="" style="endArrow=classic;html=1;rounded=0;curved=1;exitX=1;exitY=0.5;exitDx=0;exitDy=0;strokeWidth=2;entryX=0;entryY=0.5;entryDx=0;entryDy=0;" parent="1" source="9U9fe0AIUVm3C8UtWrKh-2" edge="1" target="9U9fe0AIUVm3C8UtWrKh-1">
          <mxGeometry width="50" height="50" relative="1" as="geometry">
            <mxPoint x="1800.48" y="291.68" as="sourcePoint" />
            <mxPoint x="1760" y="210" as="targetPoint" />
          </mxGeometry>
        </mxCell>
        <mxCell id="9U9fe0AIUVm3C8UtWrKh-4" value="" style="endArrow=classic;html=1;rounded=0;curved=1;exitX=1;exitY=0;exitDx=0;exitDy=0;entryX=0.5;entryY=1;entryDx=0;entryDy=0;strokeWidth=2;" parent="1" source="1YuBAB6H5FNzcQYwjlHQ-5" target="38OJZpCKWBIkEkBOtK0j-16" edge="1">
          <mxGeometry width="50" height="50" relative="1" as="geometry">
            <mxPoint x="1370" y="239.66" as="sourcePoint" />
            <mxPoint x="1410" y="239.66" as="targetPoint" />
          </mxGeometry>
        </mxCell>
        <mxCell id="38OJZpCKWBIkEkBOtK0j-1" value="i" style="text;html=1;strokeColor=none;fillColor=none;align=center;verticalAlign=middle;whiteSpace=wrap;rounded=0;fontSize=30;" parent="1" vertex="1">
          <mxGeometry x="90" y="280" width="60" height="40" as="geometry" />
        </mxCell>
        <mxCell id="38OJZpCKWBIkEkBOtK0j-2" value="o" style="text;html=1;strokeColor=none;fillColor=none;align=center;verticalAlign=middle;whiteSpace=wrap;rounded=0;fontSize=30;" parent="1" vertex="1">
          <mxGeometry x="1780.48" y="281.68" width="60" height="40" as="geometry" />
        </mxCell>
        <mxCell id="38OJZpCKWBIkEkBOtK0j-3" value="s&lt;sub&gt;1&lt;/sub&gt;" style="text;html=1;strokeColor=none;fillColor=none;align=center;verticalAlign=middle;whiteSpace=wrap;rounded=0;fontSize=20;" parent="1" vertex="1">
          <mxGeometry x="330" y="280" width="60" height="40" as="geometry" />
        </mxCell>
        <mxCell id="38OJZpCKWBIkEkBOtK0j-5" value="&lt;div style=&quot;font-size: 20px;&quot;&gt;s&lt;sub&gt;2&lt;/sub&gt;&lt;/div&gt;" style="text;html=1;strokeColor=none;fillColor=none;align=center;verticalAlign=middle;whiteSpace=wrap;rounded=0;fontSize=20;" parent="1" vertex="1">
          <mxGeometry x="570" y="280" width="60" height="40" as="geometry" />
        </mxCell>
        <mxCell id="38OJZpCKWBIkEkBOtK0j-6" value="s&lt;sub&gt;4&lt;/sub&gt;" style="text;html=1;strokeColor=none;fillColor=none;align=center;verticalAlign=middle;whiteSpace=wrap;rounded=0;fontSize=20;" parent="1" vertex="1">
          <mxGeometry x="1050" y="120" width="60" height="40" as="geometry" />
        </mxCell>
        <mxCell id="38OJZpCKWBIkEkBOtK0j-7" value="s&lt;sub&gt;6&lt;/sub&gt;" style="text;html=1;strokeColor=none;fillColor=none;align=center;verticalAlign=middle;whiteSpace=wrap;rounded=0;fontSize=20;" parent="1" vertex="1">
          <mxGeometry x="1050" y="439" width="60" height="40" as="geometry" />
        </mxCell>
        <mxCell id="38OJZpCKWBIkEkBOtK0j-8" value="s&lt;sub&gt;7&lt;/sub&gt;" style="text;html=1;strokeColor=none;fillColor=none;align=center;verticalAlign=middle;whiteSpace=wrap;rounded=0;fontSize=20;" parent="1" vertex="1">
          <mxGeometry x="1290" y="280" width="60" height="40" as="geometry" />
        </mxCell>
        <mxCell id="38OJZpCKWBIkEkBOtK0j-10" value="" style="endArrow=classic;html=1;rounded=0;curved=1;entryX=0;entryY=0.5;entryDx=0;entryDy=0;strokeWidth=2;exitX=1;exitY=0.5;exitDx=0;exitDy=0;" parent="1" source="1YuBAB6H5FNzcQYwjlHQ-6" target="1YuBAB6H5FNzcQYwjlHQ-23" edge="1">
          <mxGeometry width="50" height="50" relative="1" as="geometry">
            <mxPoint x="590" y="240" as="sourcePoint" />
            <mxPoint x="670" y="130" as="targetPoint" />
          </mxGeometry>
        </mxCell>
        <mxCell id="38OJZpCKWBIkEkBOtK0j-11" value="" style="ellipse;whiteSpace=wrap;html=1;aspect=fixed;strokeWidth=2;" parent="1" vertex="1">
          <mxGeometry x="800" y="200" width="80" height="80" as="geometry" />
        </mxCell>
        <mxCell id="38OJZpCKWBIkEkBOtK0j-12" value="s&lt;sub&gt;3&lt;/sub&gt;" style="text;html=1;strokeColor=none;fillColor=none;align=center;verticalAlign=middle;whiteSpace=wrap;rounded=0;fontSize=20;" parent="1" vertex="1">
          <mxGeometry x="810" y="280" width="60" height="40" as="geometry" />
        </mxCell>
        <mxCell id="38OJZpCKWBIkEkBOtK0j-16" value="O" style="rounded=0;whiteSpace=wrap;html=1;fontSize=44;strokeWidth=2;" parent="1" vertex="1">
          <mxGeometry x="1400" y="40" width="80" height="80" as="geometry" />
        </mxCell>
        <mxCell id="38OJZpCKWBIkEkBOtK0j-17" value="U" style="rounded=0;whiteSpace=wrap;html=1;fontSize=44;strokeWidth=2;" parent="1" vertex="1">
          <mxGeometry x="1400" y="350" width="80" height="80" as="geometry" />
        </mxCell>
        <mxCell id="38OJZpCKWBIkEkBOtK0j-18" value="" style="endArrow=classic;html=1;rounded=0;curved=1;strokeWidth=2;entryX=0;entryY=0.5;entryDx=0;entryDy=0;exitX=1;exitY=0.5;exitDx=0;exitDy=0;" parent="1" edge="1" target="38OJZpCKWBIkEkBOtK0j-16" source="1YuBAB6H5FNzcQYwjlHQ-2">
          <mxGeometry width="50" height="50" relative="1" as="geometry">
            <mxPoint x="1020" y="70" as="sourcePoint" />
            <mxPoint x="1131" y="80.41000000000003" as="targetPoint" />
          </mxGeometry>
        </mxCell>
        <mxCell id="38OJZpCKWBIkEkBOtK0j-19" value="" style="endArrow=classic;html=1;rounded=0;curved=1;exitX=1;exitY=1;exitDx=0;exitDy=0;entryX=0.5;entryY=0;entryDx=0;entryDy=0;strokeWidth=2;" parent="1" source="1YuBAB6H5FNzcQYwjlHQ-5" target="38OJZpCKWBIkEkBOtK0j-17" edge="1">
          <mxGeometry width="50" height="50" relative="1" as="geometry">
            <mxPoint x="1376" y="236" as="sourcePoint" />
            <mxPoint x="1420" y="150" as="targetPoint" />
          </mxGeometry>
        </mxCell>
        <mxCell id="38OJZpCKWBIkEkBOtK0j-20" value="" style="ellipse;whiteSpace=wrap;html=1;aspect=fixed;strokeWidth=2;" parent="1" vertex="1">
          <mxGeometry x="1520.48" y="201.68" width="80" height="80" as="geometry" />
        </mxCell>
        <mxCell id="38OJZpCKWBIkEkBOtK0j-21" value="s&lt;sub&gt;8&lt;/sub&gt;" style="text;html=1;strokeColor=none;fillColor=none;align=center;verticalAlign=middle;whiteSpace=wrap;rounded=0;fontSize=20;" parent="1" vertex="1">
          <mxGeometry x="1530.48" y="280" width="60" height="40" as="geometry" />
        </mxCell>
        <mxCell id="38OJZpCKWBIkEkBOtK0j-22" value="" style="endArrow=classic;html=1;rounded=0;curved=1;exitX=1;exitY=0.5;exitDx=0;exitDy=0;strokeWidth=2;entryX=0;entryY=0;entryDx=0;entryDy=0;" parent="1" target="38OJZpCKWBIkEkBOtK0j-20" edge="1" source="38OJZpCKWBIkEkBOtK0j-16">
          <mxGeometry width="50" height="50" relative="1" as="geometry">
            <mxPoint x="1500" y="99.99999999999994" as="sourcePoint" />
            <mxPoint x="1520" y="190" as="targetPoint" />
          </mxGeometry>
        </mxCell>
        <mxCell id="38OJZpCKWBIkEkBOtK0j-23" value="" style="endArrow=classic;html=1;rounded=0;curved=1;exitX=1;exitY=0.5;exitDx=0;exitDy=0;strokeWidth=2;entryX=0;entryY=1;entryDx=0;entryDy=0;" parent="1" target="38OJZpCKWBIkEkBOtK0j-20" edge="1" source="38OJZpCKWBIkEkBOtK0j-17">
          <mxGeometry width="50" height="50" relative="1" as="geometry">
            <mxPoint x="1500.8000000000002" y="356.71999999999997" as="sourcePoint" />
            <mxPoint x="1500" y="290" as="targetPoint" />
          </mxGeometry>
        </mxCell>
        <mxCell id="38OJZpCKWBIkEkBOtK0j-24" value="" style="endArrow=classic;html=1;rounded=0;curved=1;exitX=1;exitY=0.5;exitDx=0;exitDy=0;entryX=0;entryY=0.5;entryDx=0;entryDy=0;strokeWidth=2;" parent="1" target="9U9fe0AIUVm3C8UtWrKh-2" edge="1">
          <mxGeometry width="50" height="50" relative="1" as="geometry">
            <mxPoint x="1600.48" y="241.18" as="sourcePoint" />
            <mxPoint x="1660.48" y="241.18" as="targetPoint" />
          </mxGeometry>
        </mxCell>
        <mxCell id="krbLCkrSHvg6wF0_8CoV-1" value="U" style="rounded=0;whiteSpace=wrap;html=1;fontSize=44;strokeWidth=2;" vertex="1" parent="1">
          <mxGeometry x="680" y="359" width="80" height="80" as="geometry" />
        </mxCell>
        <mxCell id="krbLCkrSHvg6wF0_8CoV-2" value="" style="endArrow=classic;html=1;rounded=0;curved=1;entryX=0;entryY=0.5;entryDx=0;entryDy=0;strokeWidth=2;exitX=1;exitY=1;exitDx=0;exitDy=0;" edge="1" parent="1" target="krbLCkrSHvg6wF0_8CoV-1" source="1YuBAB6H5FNzcQYwjlHQ-6">
          <mxGeometry width="50" height="50" relative="1" as="geometry">
            <mxPoint x="585" y="277" as="sourcePoint" />
            <mxPoint x="667" y="139" as="targetPoint" />
          </mxGeometry>
        </mxCell>
        <mxCell id="krbLCkrSHvg6wF0_8CoV-4" value="A" style="rounded=0;whiteSpace=wrap;html=1;fontSize=44;strokeWidth=2;" vertex="1" parent="1">
          <mxGeometry x="1400" y="200" width="80" height="80" as="geometry" />
        </mxCell>
        <mxCell id="krbLCkrSHvg6wF0_8CoV-5" value="" style="endArrow=classic;html=1;rounded=0;curved=1;exitX=1;exitY=0.5;exitDx=0;exitDy=0;strokeWidth=2;entryX=0;entryY=0.5;entryDx=0;entryDy=0;" edge="1" parent="1" target="1YuBAB6H5FNzcQYwjlHQ-22">
          <mxGeometry width="50" height="50" relative="1" as="geometry">
            <mxPoint x="760" y="398.5" as="sourcePoint" />
            <mxPoint x="900" y="400" as="targetPoint" />
          </mxGeometry>
        </mxCell>
        <mxCell id="krbLCkrSHvg6wF0_8CoV-6" value="" style="endArrow=classic;html=1;rounded=0;curved=1;exitX=1;exitY=0.5;exitDx=0;exitDy=0;entryX=0;entryY=0.5;entryDx=0;entryDy=0;strokeWidth=2;" edge="1" parent="1">
          <mxGeometry width="50" height="50" relative="1" as="geometry">
            <mxPoint x="760" y="241.26" as="sourcePoint" />
            <mxPoint x="800" y="241.26" as="targetPoint" />
          </mxGeometry>
        </mxCell>
        <mxCell id="krbLCkrSHvg6wF0_8CoV-7" value="" style="endArrow=classic;html=1;rounded=0;curved=1;exitX=1;exitY=0.5;exitDx=0;exitDy=0;entryX=0;entryY=0.5;entryDx=0;entryDy=0;strokeWidth=2;" edge="1" parent="1">
          <mxGeometry width="50" height="50" relative="1" as="geometry">
            <mxPoint x="880" y="239.95999999999998" as="sourcePoint" />
            <mxPoint x="920" y="239.95999999999998" as="targetPoint" />
          </mxGeometry>
        </mxCell>
        <mxCell id="krbLCkrSHvg6wF0_8CoV-8" value="" style="endArrow=classic;html=1;rounded=0;curved=1;entryX=0;entryY=0;entryDx=0;entryDy=0;strokeWidth=2;exitX=1;exitY=0.75;exitDx=0;exitDy=0;" edge="1" parent="1" source="1YuBAB6H5FNzcQYwjlHQ-10" target="38OJZpCKWBIkEkBOtK0j-11">
          <mxGeometry width="50" height="50" relative="1" as="geometry">
            <mxPoint x="780" y="120" as="sourcePoint" />
            <mxPoint x="920" y="110" as="targetPoint" />
          </mxGeometry>
        </mxCell>
        <mxCell id="krbLCkrSHvg6wF0_8CoV-9" value="" style="endArrow=classic;html=1;rounded=0;curved=1;entryX=0;entryY=1;entryDx=0;entryDy=0;strokeWidth=2;exitX=1;exitY=0.25;exitDx=0;exitDy=0;" edge="1" parent="1" source="krbLCkrSHvg6wF0_8CoV-1" target="38OJZpCKWBIkEkBOtK0j-11">
          <mxGeometry width="50" height="50" relative="1" as="geometry">
            <mxPoint x="770" y="130" as="sourcePoint" />
            <mxPoint x="850" y="210" as="targetPoint" />
          </mxGeometry>
        </mxCell>
        <mxCell id="krbLCkrSHvg6wF0_8CoV-12" value="L" style="rounded=0;whiteSpace=wrap;html=1;fontSize=44;strokeWidth=2;" vertex="1" parent="1">
          <mxGeometry x="1160" y="201.68" width="80" height="80" as="geometry" />
        </mxCell>
        <mxCell id="krbLCkrSHvg6wF0_8CoV-13" value="" style="ellipse;whiteSpace=wrap;html=1;aspect=fixed;strokeWidth=2;" vertex="1" parent="1">
          <mxGeometry x="1040" y="201.68" width="80" height="80" as="geometry" />
        </mxCell>
        <mxCell id="krbLCkrSHvg6wF0_8CoV-14" value="" style="endArrow=classic;html=1;rounded=0;curved=1;exitX=1;exitY=0.5;exitDx=0;exitDy=0;entryX=0;entryY=0.5;entryDx=0;entryDy=0;strokeWidth=2;" edge="1" parent="1">
          <mxGeometry width="50" height="50" relative="1" as="geometry">
            <mxPoint x="1120" y="239.95999999999998" as="sourcePoint" />
            <mxPoint x="1160" y="239.95999999999998" as="targetPoint" />
          </mxGeometry>
        </mxCell>
        <mxCell id="krbLCkrSHvg6wF0_8CoV-15" value="" style="endArrow=classic;html=1;rounded=0;curved=1;exitX=1;exitY=0.5;exitDx=0;exitDy=0;entryX=0;entryY=0.5;entryDx=0;entryDy=0;strokeWidth=2;" edge="1" parent="1">
          <mxGeometry width="50" height="50" relative="1" as="geometry">
            <mxPoint x="1000" y="239.5" as="sourcePoint" />
            <mxPoint x="1040" y="239.5" as="targetPoint" />
          </mxGeometry>
        </mxCell>
        <mxCell id="krbLCkrSHvg6wF0_8CoV-16" value="s&lt;sub&gt;5&lt;/sub&gt;" style="text;html=1;strokeColor=none;fillColor=none;align=center;verticalAlign=middle;whiteSpace=wrap;rounded=0;fontSize=20;" vertex="1" parent="1">
          <mxGeometry x="1050" y="280" width="60" height="40" as="geometry" />
        </mxCell>
        <mxCell id="krbLCkrSHvg6wF0_8CoV-17" value="" style="endArrow=classic;html=1;rounded=0;curved=1;exitX=1;exitY=0.5;exitDx=0;exitDy=0;entryX=0;entryY=0.5;entryDx=0;entryDy=0;strokeWidth=2;" edge="1" parent="1">
          <mxGeometry width="50" height="50" relative="1" as="geometry">
            <mxPoint x="1240" y="239.57999999999998" as="sourcePoint" />
            <mxPoint x="1280" y="239.57999999999998" as="targetPoint" />
          </mxGeometry>
        </mxCell>
        <mxCell id="krbLCkrSHvg6wF0_8CoV-19" value="" style="endArrow=classic;html=1;rounded=0;curved=1;exitX=1;exitY=0.5;exitDx=0;exitDy=0;entryX=0;entryY=0.5;entryDx=0;entryDy=0;strokeWidth=2;" edge="1" parent="1">
          <mxGeometry width="50" height="50" relative="1" as="geometry">
            <mxPoint x="1360" y="241.33999999999997" as="sourcePoint" />
            <mxPoint x="1400" y="241.33999999999997" as="targetPoint" />
          </mxGeometry>
        </mxCell>
        <mxCell id="krbLCkrSHvg6wF0_8CoV-20" value="" style="endArrow=classic;html=1;rounded=0;curved=1;exitX=1;exitY=0.5;exitDx=0;exitDy=0;entryX=0;entryY=0.5;entryDx=0;entryDy=0;strokeWidth=2;" edge="1" parent="1">
          <mxGeometry width="50" height="50" relative="1" as="geometry">
            <mxPoint x="1480" y="241.33999999999997" as="sourcePoint" />
            <mxPoint x="1520" y="241.33999999999997" as="targetPoint" />
          </mxGeometry>
        </mxCell>
      </root>
    </mxGraphModel>
  </diagram>
</mxfile>
